<svg xmlns="http://www.w3.org/2000/svg" width="280" height="280" viewBox="0 0 280 280">
  <defs>
    <linearGradient id="g" x1="0" y1="0" x2="1" y2="1">
      <stop offset="0" stop-color="#fff6c4"/>
      <stop offset="0.45" stop-color="#e6c86a"/>
      <stop offset="1" stop-color="#b8860b"/>
    </linearGradient>
    <g id="taiji">
      <circle r="11.6" fill="url(#g)" stroke="#7a5c14" stroke-width="1.15"/>
      <g transform="scale(0.274)">
        <circle r="39" fill="#1a3a66"/>
        <path fill="#f5e6a8" d="M0,38a38,38 0 0 1 0,-76a19,19 0 0 1 0,38a19,19 0 0 0 0,38"/>
        <circle r="5" cy="19" fill="#f5e6a8"/>
        <circle r="5" cy="-19" fill="#1a3a66"/>
      </g>
    </g>
    <g id="corner">
      <!-- Solid gold L: filled elbow, no 回 cutout -->
      <path fill="url(#g)" stroke="#7a5c14" stroke-width="0.75" stroke-linejoin="round" d="M3 3 H54.8 V16.6 H41.2 V41.2 H16.6 V54.8 H3 Z"/>
      <path fill="none" stroke="#f8e9a6" stroke-width="1.35" stroke-linejoin="round" d="M5 5 H52.6 M5 5 V52.6"/>
      <path fill="none" stroke="#f3e08a" stroke-width="1.65" stroke-linejoin="round" d="M53.2 15 H40.2 V40.2 H15"/>
      <!-- 田 engraved on the inner gold, not cut out -->
      <g transform="translate(27.6,27.6)">
        <rect width="11.6" height="11.6" rx="1" fill="#c9a227" stroke="#f3e08a" stroke-width="1.3"/>
        <rect x="2.3" y="2.3" width="7" height="7" rx="0.35" fill="none" stroke="#f8e9a6" stroke-width="1"/>
        <path d="M5.8 1 v9.6 M1 5.8 h9.6" fill="none" stroke="#7a5c14" stroke-width="1.35"/>
        <path d="M5.8 1 v9.6 M1 5.8 h9.6" fill="none" stroke="#f3e08a" stroke-width="0.5"/>
      </g>
      <circle cx="50.8" cy="9.8" r="1.55" fill="#f3e08a" stroke="#7a5c14" stroke-width="0.45"/>
      <circle cx="9.8" cy="50.8" r="1.55" fill="#f3e08a" stroke="#7a5c14" stroke-width="0.45"/>
      <use href="#taiji" x="20.2" y="20.2"/>
    </g>
  </defs>
  <g fill="none" stroke="url(#g)" stroke-width="7" stroke-linecap="butt">
    <path d="M50 10 H230"/>
    <path d="M50 270 H230"/>
    <path d="M10 50 V230"/>
    <path d="M270 50 V230"/>
  </g>
  <g fill="none" stroke="#f3e08a" stroke-width="1.85">
    <path d="M50 18.2 H230"/>
    <path d="M50 261.8 H230"/>
    <path d="M18.2 50 V230"/>
    <path d="M261.8 50 V230"/>
  </g>
  <use href="#corner"/>
  <use href="#corner" transform="translate(280,0) scale(-1,1)"/>
  <use href="#corner" transform="translate(0,280) scale(1,-1)"/>
  <use href="#corner" transform="translate(280,280) scale(-1,-1)"/>
</svg>
